<svg id="Warstwa_1" data-name="Warstwa 1" xmlns="http://www.w3.org/2000/svg" viewBox="0 0 502.22 285.67"><defs><style>.cls-1,.cls-4,.cls-5,.cls-6,.cls-8{fill:none;}.cls-1{stroke:#010101;stroke-width:0.5px;}.cls-1,.cls-3,.cls-4,.cls-5,.cls-6{stroke-miterlimit:10;}.cls-2,.cls-3{fill:#fff;}.cls-3{stroke:#2d57a2;}.cls-3,.cls-4,.cls-5{stroke-width:0.58px;}.cls-4{stroke:#3861ab;}.cls-5{stroke:#2d55a3;}.cls-6{stroke:#1d1d1b;}.cls-15,.cls-7{fill:#1d1d1b;}.cls-15,.cls-9{font-size:48px;font-family:Gabriola;}.cls-9{fill:#2b4b9b;}.cls-10{letter-spacing:-0.01em;}.cls-11{letter-spacing:-0.01em;}.cls-12{letter-spacing:-0.04em;}.cls-13,.cls-17{letter-spacing:-0.02em;}.cls-14{letter-spacing:0em;}.cls-16{letter-spacing:-0.04em;}.cls-17,.cls-18,.cls-19{fill:#010101;}.cls-19{letter-spacing:-0.01em;}</style></defs><line class="cls-1" x1="309.29" y1="285.42" x2="308.63" y2="285.42"/><path class="cls-1" d="M194.53,244.53" transform="translate(-38.53 -49.9)"/><path class="cls-2" d="M100.72,203" transform="translate(-38.53 -49.9)"/><polygon class="cls-3" points="35.59 8.49 35.54 6.24 54.41 5.75 54.46 8 35.59 8.49"/><rect class="cls-4" x="2.9" y="44.29" width="87.3" height="89.95"/><path class="cls-5" d="M39.33,93v92.21h89.49V93Zm87.3,90H41.52V95.27h85.11Z" transform="translate(-38.53 -49.9)"/><rect class="cls-4" x="82.43" y="50.2" width="2.19" height="19.77" transform="translate(-39.08 -49.13) rotate(-0.53)"/><rect class="cls-4" x="2.9" y="66" width="87.3" height="2.25"/><rect class="cls-4" x="41.43" y="124.58" width="87.3" height="2.25" transform="translate(-39.2 -49.44) rotate(-0.31)"/><path class="cls-4" d="M59.41,139.17" transform="translate(-38.53 -49.9)"/><path class="cls-4" d="M59.41,179" transform="translate(-38.53 -49.9)"/><path class="cls-4" d="M59.41,145.1" transform="translate(-38.53 -49.9)"/><path class="cls-4" d="M115.11,171.8" transform="translate(-38.53 -49.9)"/><path class="cls-4" d="M120,135.93c-1.42,0-2.51,7.62-3.53,14.77a93.08,93.08,0,0,0-.21,21.79c.84,8.16,2.21,11.13,4.12,11.65a2.5,2.5,0,0,0,1.3,0C127.62,182.39,123.48,136,120,135.93Z" transform="translate(-38.53 -49.9)"/><path class="cls-4" d="M121,185.36a3.57,3.57,0,0,1-.92-.13c-2.65-.72-4.08-4.37-4.93-12.62a95.26,95.26,0,0,1,.21-22.07c1.77-12.37,2.55-15.73,4.62-15.73h0c.93,0,2.67,0,4.38,12.87,0,.35,4.42,35.55-2.41,37.55A3.51,3.51,0,0,1,121,185.36Zm-1-47.83c-.88,2.14-1.83,8.77-2.48,13.34a92.39,92.39,0,0,0-.2,21.51c.69,6.67,1.8,10.26,3.3,10.67a1.46,1.46,0,0,0,.73,0s.75-.25,1.37-3C125.15,169,122.12,142.14,120,137.53Z" transform="translate(-38.53 -49.9)"/><path class="cls-4" d="M107,135.93c-1.43,0-2.52,7.62-3.54,14.77a94.33,94.33,0,0,0-.21,21.79c.85,8.16,2.21,11.13,4.12,11.65a2.48,2.48,0,0,0,1.3,0C114.62,182.39,110.47,136,107,135.93Z" transform="translate(-38.53 -49.9)"/><path class="cls-4" d="M108,185.36a3.64,3.64,0,0,1-.93-.13c-2.64-.72-4.07-4.37-4.92-12.62a94.6,94.6,0,0,1,.21-22.07c1.77-12.37,2.54-15.73,4.62-15.73h0c.94,0,2.67,0,4.39,12.87,0,.36,4.41,35.55-2.42,37.55A3.35,3.35,0,0,1,108,185.36Zm-1-47.83c-.88,2.14-1.82,8.77-2.48,13.33a92.46,92.46,0,0,0-.2,21.52c.69,6.67,1.8,10.26,3.31,10.67a1.42,1.42,0,0,0,.72,0s.75-.25,1.37-3C112.14,169,109.11,142.14,107,137.53Z" transform="translate(-38.53 -49.9)"/><path class="cls-4" d="M63,135.93c-1.43,0-2.52,7.62-3.54,14.77a94,94,0,0,0-.2,21.79c.84,8.16,2.2,11.13,4.11,11.65a2.53,2.53,0,0,0,1.31,0C70.7,182.39,66.55,136,63,135.93Z" transform="translate(-38.53 -49.9)"/><path class="cls-4" d="M64.05,185.36a3.64,3.64,0,0,1-.93-.13c-2.64-.72-4.07-4.37-4.92-12.62a94.63,94.63,0,0,1,.21-22.07C60.18,138.17,61,134.81,63,134.81h0c.94,0,2.67,0,4.39,12.87,0,.35,4.42,35.55-2.42,37.55A3.35,3.35,0,0,1,64.05,185.36Zm-1-47.83c-.89,2.14-1.83,8.77-2.48,13.33a92.25,92.25,0,0,0-.21,21.52c.69,6.67,1.81,10.26,3.31,10.67a1.47,1.47,0,0,0,.73,0s.74-.25,1.36-3C68.22,169,65.2,142.14,63.06,137.53Z" transform="translate(-38.53 -49.9)"/><path class="cls-4" d="M48.78,135.93c-1.43,0-2.51,7.62-3.54,14.77a94,94,0,0,0-.2,21.79c.84,8.16,2.21,11.13,4.11,11.65a2.53,2.53,0,0,0,1.31,0C56.45,182.39,52.3,136,48.78,135.93Z" transform="translate(-38.53 -49.9)"/><path class="cls-4" d="M49.8,185.36a3.7,3.7,0,0,1-.93-.13c-2.64-.72-4.07-4.37-4.92-12.62a94.63,94.63,0,0,1,.21-22.07c1.77-12.37,2.54-15.73,4.62-15.73h0c.93,0,2.66,0,4.38,12.87,0,.35,4.42,35.55-2.41,37.55A3.51,3.51,0,0,1,49.8,185.36Zm-1-47.83c-.89,2.14-1.83,8.77-2.48,13.34a92.76,92.76,0,0,0-.21,21.51c.69,6.67,1.81,10.26,3.31,10.67a1.46,1.46,0,0,0,.73,0s.75-.25,1.36-3C54,169,51,142.14,48.81,137.53Z" transform="translate(-38.53 -49.9)"/><rect class="cls-4" x="5.99" y="83.85" width="8.98" height="2.25"/><rect class="cls-4" x="77.16" y="83.85" width="8.98" height="2.25"/><rect class="cls-4" x="20.89" y="83.85" width="8.33" height="2.25"/><rect class="cls-4" x="63.89" y="83.85" width="8.98" height="2.25"/><polygon class="cls-4" points="3.4 68.13 2.4 66.12 45.81 43.29 46.81 45.29 3.4 68.13"/><polygon class="cls-4" points="89.71 68.13 45.82 45.3 46.8 43.28 90.69 66.12 89.71 68.13"/><ellipse class="cls-4" cx="46.72" cy="107.33" rx="14.15" ry="13.81"/><path class="cls-4" d="M85.25,172.16a14.94,14.94,0,1,1,15.23-14.93A15.1,15.1,0,0,1,85.25,172.16Zm0-27.62a12.69,12.69,0,1,0,13,12.69A12.89,12.89,0,0,0,85.25,144.54Z" transform="translate(-38.53 -49.9)"/><rect class="cls-4" x="31.68" y="105.96" width="28.99" height="28.1"/><path class="cls-4" d="M100.28,185.05H70.21V154.77h30.07Zm-27.91-2.18H98.12V156.94H72.37Z" transform="translate(-38.53 -49.9)"/><polygon class="cls-3" points="1.46 45.06 0.39 43.09 44.77 17.46 45.84 19.43 1.46 45.06"/><polygon class="cls-3" points="90.36 42.21 89.23 44.29 46.15 19.31 47.28 17.23 90.36 42.21"/><text x="-38.53" y="-49.9"/><text x="-38.53" y="-49.9"/><text x="-38.53" y="-49.9"/><text x="-38.53" y="-49.9"/><path class="cls-6" d="M380.74,105.17" transform="translate(-38.53 -49.9)"/><path class="cls-7" d="M357.26,107.21" transform="translate(-38.53 -49.9)"/><line class="cls-8" x1="321.83" y1="98.41" x2="411.33" y2="98.41"/><line class="cls-8" x1="318.73" y1="128.51" x2="414.39" y2="128.51"/><text class="cls-9" transform="translate(105.96 94.1)"><tspan class="cls-10">N</tspan><tspan x="25.01" y="0">ajś</tspan><tspan class="cls-11" x="64.61" y="0">w</tspan><tspan x="87.6" y="0">ięt</tspan><tspan class="cls-10" x="123.25" y="0">s</tspan><tspan x="136.79" y="0">zej Maryi </tspan><tspan class="cls-12" x="280.02" y="0">P</tspan><tspan x="297.91" y="0">an</tspan><tspan class="cls-13" x="335.67" y="0">n</tspan><tspan class="cls-14" x="355.32" y="0">y</tspan></text><text class="cls-15" transform="translate(209.3 140.29)">w Filipo<tspan class="cls-11" x="115.29" y="0">w</tspan><tspan x="138.28" y="0">ie</tspan></text><text class="cls-15" transform="translate(105.96 52.27)"><tspan class="cls-12">P</tspan><tspan x="17.89" y="0">a</tspan><tspan class="cls-11" x="35.06" y="0">r</tspan><tspan x="48.63" y="0">afia p</tspan><tspan class="cls-16" x="130.59" y="0">w</tspan><tspan x="152.06" y="0">. </tspan><tspan class="cls-17" x="168.32" y="0">W</tspan><tspan class="cls-18" x="201.49" y="0">niebo</tspan><tspan class="cls-19" x="282.32" y="0">w</tspan><tspan class="cls-18" x="305.19" y="0">zięcia</tspan></text><text x="-38.53" y="-49.9"/><text x="-38.53" y="-49.9"/><text x="-38.53" y="-49.9"/></svg>