<?xml version="1.0" encoding="utf-8"?>
<!-- Generator: Adobe Illustrator 16.0.0, SVG Export Plug-In . SVG Version: 6.00 Build 0)  -->
<!DOCTYPE svg PUBLIC "-//W3C//DTD SVG 1.1//EN" "http://www.w3.org/Graphics/SVG/1.1/DTD/svg11.dtd">
<svg version="1.1" id="Capa_1" xmlns="http://www.w3.org/2000/svg" xmlns:xlink="http://www.w3.org/1999/xlink" x="0px" y="0px"
	 width="29.292px" height="20.029px" viewBox="0 0 29.292 20.029" enable-background="new 0 0 29.292 20.029" xml:space="preserve">
<g opacity="0.8">
	<path fill="#FFFFFF" enable-background="new    " d="M9.969,1.246c4.81,0,8.723,3.914,8.723,8.723c0,4.81-3.913,8.723-8.723,8.723
		c-4.809,0-8.723-3.913-8.723-8.723C1.246,5.159,5.16,1.246,9.969,1.246 M9.969,0C4.463,0,0,4.463,0,9.969
		c0,5.507,4.463,9.969,9.969,9.969c5.507,0,9.969-4.462,9.969-9.969C19.938,4.463,15.475,0,9.969,0L9.969,0z"/>
	<g>
		<g>
			<path fill="#FFFFFF" d="M5.275,6.542l4.067,3.222c0.184,0.146,0.438,0.211,0.686,0.2c0.247,0.011,0.5-0.053,0.685-0.2
				l4.068-3.222c0.324-0.256,0.252-0.466-0.162-0.466h-4.59h-4.59C5.022,6.075,4.95,6.285,5.275,6.542z"/>
			<path fill="#FFFFFF" d="M15.073,7.392l-4.445,3.375c-0.166,0.125-0.384,0.185-0.601,0.183c-0.217,0.002-0.436-0.061-0.601-0.183
				L4.982,7.392C4.651,7.142,4.382,7.276,4.382,7.69v5.537c0,0.414,0.339,0.753,0.752,0.753h4.894h4.892
				c0.414,0,0.753-0.339,0.753-0.753V7.69C15.673,7.276,15.403,7.142,15.073,7.392z"/>
		</g>
	</g>
</g>
</svg>
