<?xml version="1.0" encoding="utf-8"?>
<!-- Generator: Adobe Illustrator 16.0.0, SVG Export Plug-In . SVG Version: 6.00 Build 0)  -->
<!DOCTYPE svg PUBLIC "-//W3C//DTD SVG 1.1//EN" "http://www.w3.org/Graphics/SVG/1.1/DTD/svg11.dtd">
<svg version="1.1" id="Capa_1" xmlns="http://www.w3.org/2000/svg" xmlns:xlink="http://www.w3.org/1999/xlink" x="0px" y="0px"
	 width="29.292px" height="20.029px" viewBox="0 0 29.292 20.029" enable-background="new 0 0 29.292 20.029" xml:space="preserve">
<g opacity="0.8">
	<g>
		<circle fill="#FFFFFF" cx="10.017" cy="6.98" r="3.501"/>
		<path fill="#FFFFFF" d="M10.059,0C4.523,0,0.036,4.488,0.036,10.025c0,5.535,4.487,10.021,10.023,10.021
			c5.537,0,10.023-4.486,10.023-10.021C20.083,4.488,15.594,0,10.059,0z M10.059,18.793c-4.834,0-8.77-3.936-8.77-8.768
			c0-4.838,3.936-8.771,8.77-8.771c4.834,0,8.77,3.936,8.77,8.771C18.829,14.857,14.893,18.793,10.059,18.793z"/>
		<path fill="#FFFFFF" d="M11.546,10.753H8.574c-2.473,0-4.484,2.012-4.484,4.482v2.613c2.359,0.738,4.215,1.168,5.902,1.168
			c3.295,0,5.918-1.523,6.037-1.584v-2.197C16.029,12.764,14.017,10.753,11.546,10.753z"/>
	</g>
</g>
</svg>
